<svg width="61" height="29" viewBox="0 0 61 29" fill="none" xmlns="http://www.w3.org/2000/svg">
<circle cx="15.3605" cy="13.9752" r="5.38" stroke="white"/>
<line x1="15.5801" y1="4.17529" x2="15.5801" y2="6.97529" stroke="white"/>
<line x1="15.5801" y1="21.5352" x2="15.5801" y2="24.3352" stroke="white"/>
<line x1="8.3057" y1="6.77413" x2="10.2496" y2="8.71803" stroke="white"/>
<line x1="20.6172" y1="19.0854" x2="22.5611" y2="21.0293" stroke="white"/>
<line x1="5" y1="13.7554" x2="7.74909" y2="13.7554" stroke="white"/>
<line x1="22.4111" y1="13.7554" x2="25.1602" y2="13.7554" stroke="white"/>
<line x1="7.5986" y1="21.0293" x2="9.5425" y2="19.0854" stroke="white"/>
<line x1="19.9101" y1="8.71798" x2="21.854" y2="6.77408" stroke="white"/>
<line x1="37.9315" y1="9.43106" x2="31.7715" y2="22.3111" stroke="#E0B000"/>
<mask id="path-11-inside-1_0_1" fill="white">
<path fill-rule="evenodd" clip-rule="evenodd" d="M61.0001 16.5231C59.761 17.9215 57.9516 18.8029 55.9362 18.8029C52.2008 18.8029 49.1726 15.7747 49.1726 12.0393C49.1726 10.0239 50.054 8.21446 51.4524 6.97534C48.0416 7.83377 45.5166 10.9212 45.5166 14.5984C45.5166 18.9396 49.0358 22.4589 53.377 22.4589C57.0542 22.4589 60.1417 19.9339 61.0001 16.5231Z"/>
</mask>
<path d="M61.0001 16.5231L61.9699 16.7671L60.2517 15.8599L61.0001 16.5231ZM51.4524 6.97534L52.1156 7.72379L51.2084 6.00558L51.4524 6.97534ZM60.2517 15.8599C59.1943 17.0532 57.6535 17.8029 55.9362 17.8029V19.8029C58.2497 19.8029 60.3277 18.7898 61.7486 17.1863L60.2517 15.8599ZM55.9362 17.8029C52.7531 17.8029 50.1726 15.2224 50.1726 12.0393H48.1726C48.1726 16.327 51.6485 19.8029 55.9362 19.8029V17.8029ZM50.1726 12.0393C50.1726 10.322 50.9223 8.78116 52.1156 7.72379L50.7892 6.2269C49.1857 7.64776 48.1726 9.72583 48.1726 12.0393H50.1726ZM46.5166 14.5984C46.5166 11.3904 48.7195 8.69435 51.6965 7.9451L51.2084 6.00558C47.3638 6.97318 44.5166 10.4521 44.5166 14.5984H46.5166ZM53.377 21.4589C49.5881 21.4589 46.5166 18.3874 46.5166 14.5984H44.5166C44.5166 19.4919 48.4836 23.4589 53.377 23.4589V21.4589ZM60.0304 16.279C59.2811 19.256 56.5851 21.4589 53.377 21.4589V23.4589C57.5234 23.4589 61.0023 20.6117 61.9699 16.7671L60.0304 16.279Z" fill="#E0B000" mask="url(#path-11-inside-1_0_1)"/>
</svg>
 